<svg width="34" height="34" viewBox="0 0 34 34" fill="none" xmlns="http://www.w3.org/2000/svg">
<path fill-rule="evenodd" clip-rule="evenodd" d="M20.8349 23.6683C20.5693 23.9338 20.209 24.083 19.8333 24.083C19.4577 24.083 19.0974 23.9338 18.8317 23.6683L12.1635 17L18.8317 10.3318C19.0989 10.0737 19.4568 9.93091 19.8282 9.93414C20.1997 9.93736 20.555 10.0864 20.8177 10.349C21.0803 10.6117 21.2293 10.967 21.2325 11.3384C21.2358 11.7099 21.093 12.0677 20.8349 12.3349L16.1698 17L20.8349 21.6651C21.1005 21.9308 21.2497 22.291 21.2497 22.6667C21.2497 23.0423 21.1005 23.4026 20.8349 23.6683Z" fill="black"/>
</svg>
