<svg width="33" height="33" viewBox="0 0 33 33" fill="none" xmlns="http://www.w3.org/2000/svg">
<g clip-path="url(#clip0_3_42)">
<path d="M16.0629 10.3274L5.5 19.0272V28.4167C5.5 28.6598 5.59658 28.893 5.76849 29.0649C5.9404 29.2368 6.17356 29.3334 6.41667 29.3334L12.8368 29.3167C13.0791 29.3155 13.3111 29.2184 13.482 29.0466C13.6529 28.8749 13.7489 28.6424 13.7489 28.4001V22.9167C13.7489 22.6736 13.8454 22.4404 14.0173 22.2685C14.1893 22.0966 14.4224 22 14.6655 22H18.3322C18.5753 22 18.8085 22.0966 18.9804 22.2685C19.1523 22.4404 19.2489 22.6736 19.2489 22.9167V28.3961C19.2485 28.5167 19.2719 28.6362 19.3178 28.7477C19.3637 28.8593 19.4312 28.9607 19.5163 29.0461C19.6015 29.1315 19.7027 29.1993 19.8141 29.2455C19.9255 29.2918 20.0449 29.3156 20.1655 29.3156L26.5833 29.3334C26.8265 29.3334 27.0596 29.2368 27.2315 29.0649C27.4034 28.893 27.5 28.6598 27.5 28.4167V19.0209L16.9394 10.3274C16.8153 10.2273 16.6606 10.1728 16.5011 10.1728C16.3417 10.1728 16.187 10.2273 16.0629 10.3274ZM32.7479 16.2405L27.9583 12.2925V4.35706C27.9583 4.17472 27.8859 3.99985 27.757 3.87092C27.628 3.74199 27.4532 3.66956 27.2708 3.66956H24.0625C23.8802 3.66956 23.7053 3.74199 23.5764 3.87092C23.4474 3.99985 23.375 4.17472 23.375 4.35706V8.517L18.2457 4.2969C17.7534 3.89184 17.1358 3.67037 16.4983 3.67037C15.8608 3.67037 15.2431 3.89184 14.7509 4.2969L0.24865 16.2405C0.179033 16.298 0.121437 16.3687 0.079151 16.4485C0.0368651 16.5283 0.0107189 16.6157 0.00220612 16.7056C-0.00630663 16.7955 0.00298099 16.8862 0.0295383 16.9726C0.0560956 17.0589 0.0994021 17.1391 0.156983 17.2087L1.61792 18.9848C1.67535 19.0546 1.74598 19.1124 1.82577 19.1549C1.90557 19.1974 1.99296 19.2237 2.08295 19.2324C2.17294 19.2411 2.26376 19.2319 2.3502 19.2054C2.43664 19.179 2.51702 19.1357 2.58672 19.0782L16.0629 7.97846C16.187 7.87839 16.3417 7.82382 16.5011 7.82382C16.6606 7.82382 16.8153 7.87839 16.9394 7.97846L30.4162 19.0782C30.4857 19.1357 30.566 19.179 30.6523 19.2056C30.7386 19.2322 30.8293 19.2414 30.9193 19.2329C31.0092 19.2244 31.0965 19.1983 31.1763 19.156C31.2561 19.1137 31.3268 19.0561 31.3844 18.9865L32.8453 17.2104C32.9028 17.1405 32.946 17.0598 32.9722 16.9731C32.9985 16.8864 33.0073 16.7954 32.9982 16.7052C32.9892 16.6151 32.9624 16.5276 32.9195 16.4479C32.8765 16.3681 32.8182 16.2976 32.7479 16.2405Z" fill="#030303"/>
</g>
<defs>
<clipPath id="clip0_3_42">
<rect width="33" height="33" fill="white"/>
</clipPath>
</defs>
</svg>
