<svg width="40" height="46" viewBox="0 0 40 46" fill="none" xmlns="http://www.w3.org/2000/svg">
<path d="M23.3333 9.49274V35.7996H16.6666V9.49274H23.3333ZM33.3333 5.73462H30V9.49274H26.6666V5.73462H13.3333V9.49274H9.99996V5.73462H6.66663V39.5577H9.99996V35.7996H13.3333V39.5577H26.6666V35.7996H30V39.5577H33.3333V5.73462ZM26.6666 17.009V13.2509H30V17.009H26.6666ZM9.99996 17.009V13.2509H13.3333V17.009H9.99996ZM26.6666 24.5252V20.7671H30V24.5252H26.6666ZM9.99996 24.5252V20.7671H13.3333V24.5252H9.99996ZM26.6666 32.0415V28.2833H30V32.0415H26.6666ZM9.99996 32.0415V28.2833H13.3333V32.0415H9.99996Z" fill="#5664F5"/>
</svg>
